<mxfile host="app.diagrams.net" modified="2023-05-24T19:45:03.810Z" agent="Mozilla/5.0 (Macintosh; Intel Mac OS X 10_15_7) AppleWebKit/537.36 (KHTML, like Gecko) Chrome/113.0.0.0 Safari/537.36" etag="7yLwl_krH2JrIX6aaEsk" version="21.3.3" type="google">
  <diagram name="TCP" id="2YBvvXClWsGukQMizWep">
    <mxGraphModel grid="1" page="1" gridSize="10" guides="1" tooltips="1" connect="1" arrows="1" fold="1" pageScale="1" pageWidth="850" pageHeight="1100" math="0" shadow="0">
      <root>
        <mxCell id="0" />
        <mxCell id="1" parent="0" />
        <mxCell id="zNwnEr8ozs20U4Y1TrXp-3" value="" style="endArrow=none;html=1;rounded=0;shadow=0;sketch=1;curveFitting=1;jiggle=2;" edge="1" parent="1">
          <mxGeometry width="50" height="50" relative="1" as="geometry">
            <mxPoint x="285" y="1500" as="sourcePoint" />
            <mxPoint x="285" y="40" as="targetPoint" />
          </mxGeometry>
        </mxCell>
        <mxCell id="zNwnEr8ozs20U4Y1TrXp-4" value="" style="endArrow=none;html=1;rounded=0;shadow=0;sketch=1;curveFitting=1;jiggle=2;" edge="1" parent="1">
          <mxGeometry width="50" height="50" relative="1" as="geometry">
            <mxPoint x="565" y="1500" as="sourcePoint" />
            <mxPoint x="565" y="40" as="targetPoint" />
          </mxGeometry>
        </mxCell>
        <mxCell id="zNwnEr8ozs20U4Y1TrXp-5" value="SYN" style="endArrow=classic;html=1;rounded=0;shadow=0;sketch=1;curveFitting=1;jiggle=2;" edge="1" parent="1">
          <mxGeometry width="50" height="50" relative="1" as="geometry">
            <mxPoint x="290" y="40" as="sourcePoint" />
            <mxPoint x="560" y="60" as="targetPoint" />
          </mxGeometry>
        </mxCell>
        <mxCell id="zNwnEr8ozs20U4Y1TrXp-6" value="ACK SYN" style="endArrow=classic;html=1;rounded=0;shadow=0;sketch=1;curveFitting=1;jiggle=2;" edge="1" parent="1">
          <mxGeometry width="50" height="50" relative="1" as="geometry">
            <mxPoint x="560" y="70" as="sourcePoint" />
            <mxPoint x="290" y="90" as="targetPoint" />
          </mxGeometry>
        </mxCell>
        <mxCell id="zNwnEr8ozs20U4Y1TrXp-7" value="ACK" style="endArrow=classic;html=1;rounded=0;shadow=0;sketch=1;curveFitting=1;jiggle=2;" edge="1" parent="1">
          <mxGeometry width="50" height="50" relative="1" as="geometry">
            <mxPoint x="290" y="100" as="sourcePoint" />
            <mxPoint x="560" y="120" as="targetPoint" />
          </mxGeometry>
        </mxCell>
        <mxCell id="zNwnEr8ozs20U4Y1TrXp-8" value="" style="endArrow=none;dashed=1;html=1;rounded=0;shadow=0;sketch=1;curveFitting=1;jiggle=2;" edge="1" parent="1">
          <mxGeometry width="50" height="50" relative="1" as="geometry">
            <mxPoint x="245" y="130" as="sourcePoint" />
            <mxPoint x="605" y="130" as="targetPoint" />
          </mxGeometry>
        </mxCell>
        <mxCell id="zNwnEr8ozs20U4Y1TrXp-10" value="cwnd = IW = 2&lt;br&gt;&lt;br&gt;sstresh = 8" style="text;html=1;align=center;verticalAlign=middle;resizable=0;points=[];autosize=1;strokeColor=none;fillColor=none;shadow=0;sketch=1;curveFitting=1;jiggle=2;" vertex="1" parent="1">
          <mxGeometry x="160" y="128" width="100" height="60" as="geometry" />
        </mxCell>
        <mxCell id="zNwnEr8ozs20U4Y1TrXp-14" value="cwnd = 4&lt;br&gt;&lt;br&gt;sstresh&amp;nbsp;= 8" style="text;html=1;align=center;verticalAlign=middle;resizable=0;points=[];autosize=1;strokeColor=none;fillColor=none;shadow=0;sketch=1;curveFitting=1;jiggle=2;" vertex="1" parent="1">
          <mxGeometry x="170" y="240" width="80" height="60" as="geometry" />
        </mxCell>
        <mxCell id="zNwnEr8ozs20U4Y1TrXp-15" value="1" style="endArrow=classic;html=1;rounded=0;shadow=0;sketch=1;curveFitting=1;jiggle=2;" edge="1" parent="1">
          <mxGeometry width="50" height="50" relative="1" as="geometry">
            <mxPoint x="290" y="140" as="sourcePoint" />
            <mxPoint x="560" y="160" as="targetPoint" />
          </mxGeometry>
        </mxCell>
        <mxCell id="zNwnEr8ozs20U4Y1TrXp-16" value="2" style="endArrow=classic;html=1;rounded=0;shadow=0;sketch=1;curveFitting=1;jiggle=2;" edge="1" parent="1">
          <mxGeometry width="50" height="50" relative="1" as="geometry">
            <mxPoint x="290" y="160" as="sourcePoint" />
            <mxPoint x="560" y="180" as="targetPoint" />
          </mxGeometry>
        </mxCell>
        <mxCell id="zNwnEr8ozs20U4Y1TrXp-17" value="ACK 1" style="endArrow=classic;html=1;rounded=0;shadow=0;sketch=1;curveFitting=1;jiggle=2;" edge="1" parent="1">
          <mxGeometry x="-0.0015" width="50" height="50" relative="1" as="geometry">
            <mxPoint x="560" y="190" as="sourcePoint" />
            <mxPoint x="290" y="210" as="targetPoint" />
            <mxPoint as="offset" />
          </mxGeometry>
        </mxCell>
        <mxCell id="zNwnEr8ozs20U4Y1TrXp-18" value="ACK 2" style="endArrow=classic;html=1;rounded=0;shadow=0;sketch=1;curveFitting=1;jiggle=2;" edge="1" parent="1">
          <mxGeometry width="50" height="50" relative="1" as="geometry">
            <mxPoint x="560" y="210" as="sourcePoint" />
            <mxPoint x="290" y="230" as="targetPoint" />
          </mxGeometry>
        </mxCell>
        <mxCell id="zNwnEr8ozs20U4Y1TrXp-20" value="3" style="endArrow=classic;html=1;rounded=0;shadow=0;sketch=1;curveFitting=1;jiggle=2;" edge="1" parent="1">
          <mxGeometry width="50" height="50" relative="1" as="geometry">
            <mxPoint x="290" y="240" as="sourcePoint" />
            <mxPoint x="560" y="260" as="targetPoint" />
          </mxGeometry>
        </mxCell>
        <mxCell id="zNwnEr8ozs20U4Y1TrXp-21" value="4" style="endArrow=classic;html=1;rounded=0;shadow=0;sketch=1;curveFitting=1;jiggle=2;" edge="1" parent="1">
          <mxGeometry width="50" height="50" relative="1" as="geometry">
            <mxPoint x="290" y="260" as="sourcePoint" />
            <mxPoint x="560" y="280" as="targetPoint" />
          </mxGeometry>
        </mxCell>
        <mxCell id="zNwnEr8ozs20U4Y1TrXp-22" value="5" style="endArrow=classic;html=1;rounded=0;shadow=0;sketch=1;curveFitting=1;jiggle=2;" edge="1" parent="1">
          <mxGeometry width="50" height="50" relative="1" as="geometry">
            <mxPoint x="290" y="280" as="sourcePoint" />
            <mxPoint x="560" y="300" as="targetPoint" />
          </mxGeometry>
        </mxCell>
        <mxCell id="zNwnEr8ozs20U4Y1TrXp-23" value="6" style="endArrow=classic;html=1;rounded=0;shadow=0;sketch=1;curveFitting=1;jiggle=2;" edge="1" parent="1">
          <mxGeometry width="50" height="50" relative="1" as="geometry">
            <mxPoint x="290" y="300" as="sourcePoint" />
            <mxPoint x="560" y="320" as="targetPoint" />
          </mxGeometry>
        </mxCell>
        <mxCell id="zNwnEr8ozs20U4Y1TrXp-24" value="ACK 3" style="endArrow=classic;html=1;rounded=0;shadow=0;sketch=1;curveFitting=1;jiggle=2;" edge="1" parent="1">
          <mxGeometry x="-0.0015" width="50" height="50" relative="1" as="geometry">
            <mxPoint x="560" y="330" as="sourcePoint" />
            <mxPoint x="290" y="350" as="targetPoint" />
            <mxPoint as="offset" />
          </mxGeometry>
        </mxCell>
        <mxCell id="zNwnEr8ozs20U4Y1TrXp-25" value="ACK 4" style="endArrow=classic;html=1;rounded=0;shadow=0;sketch=1;curveFitting=1;jiggle=2;" edge="1" parent="1">
          <mxGeometry width="50" height="50" relative="1" as="geometry">
            <mxPoint x="560" y="350" as="sourcePoint" />
            <mxPoint x="290" y="370" as="targetPoint" />
          </mxGeometry>
        </mxCell>
        <mxCell id="zNwnEr8ozs20U4Y1TrXp-26" value="ACK 5" style="endArrow=classic;html=1;rounded=0;shadow=0;sketch=1;curveFitting=1;jiggle=2;" edge="1" parent="1">
          <mxGeometry width="50" height="50" relative="1" as="geometry">
            <mxPoint x="560" y="370" as="sourcePoint" />
            <mxPoint x="290" y="390" as="targetPoint" />
          </mxGeometry>
        </mxCell>
        <mxCell id="zNwnEr8ozs20U4Y1TrXp-27" value="ACK 6" style="endArrow=classic;html=1;rounded=0;shadow=0;sketch=1;curveFitting=1;jiggle=2;" edge="1" parent="1">
          <mxGeometry width="50" height="50" relative="1" as="geometry">
            <mxPoint x="560" y="390" as="sourcePoint" />
            <mxPoint x="290" y="410" as="targetPoint" />
          </mxGeometry>
        </mxCell>
        <mxCell id="zNwnEr8ozs20U4Y1TrXp-37" style="edgeStyle=orthogonalEdgeStyle;rounded=0;orthogonalLoop=1;jettySize=auto;html=1;shadow=0;sketch=1;curveFitting=1;jiggle=2;" edge="1" parent="1" source="zNwnEr8ozs20U4Y1TrXp-28" target="zNwnEr8ozs20U4Y1TrXp-38">
          <mxGeometry relative="1" as="geometry">
            <mxPoint x="210" y="510" as="targetPoint" />
          </mxGeometry>
        </mxCell>
        <mxCell id="zNwnEr8ozs20U4Y1TrXp-28" value="cwnd = 8&lt;br&gt;&lt;br&gt;sstresh&amp;nbsp;= 8" style="text;html=1;align=center;verticalAlign=middle;resizable=0;points=[];autosize=1;strokeColor=none;fillColor=none;shadow=0;sketch=1;curveFitting=1;jiggle=2;" vertex="1" parent="1">
          <mxGeometry x="170" y="420" width="80" height="60" as="geometry" />
        </mxCell>
        <mxCell id="zNwnEr8ozs20U4Y1TrXp-29" value="7" style="endArrow=cross;html=1;rounded=0;endFill=0;shadow=0;sketch=1;curveFitting=1;jiggle=2;" edge="1" parent="1">
          <mxGeometry width="50" height="50" relative="1" as="geometry">
            <mxPoint x="290" y="420" as="sourcePoint" />
            <mxPoint x="560" y="440" as="targetPoint" />
          </mxGeometry>
        </mxCell>
        <mxCell id="zNwnEr8ozs20U4Y1TrXp-30" value="8" style="endArrow=cross;html=1;rounded=0;endFill=0;shadow=0;sketch=1;curveFitting=1;jiggle=2;" edge="1" parent="1">
          <mxGeometry width="50" height="50" relative="1" as="geometry">
            <mxPoint x="290" y="440" as="sourcePoint" />
            <mxPoint x="560" y="460" as="targetPoint" />
          </mxGeometry>
        </mxCell>
        <mxCell id="zNwnEr8ozs20U4Y1TrXp-31" value="9" style="endArrow=cross;html=1;rounded=0;endFill=0;shadow=0;sketch=1;curveFitting=1;jiggle=2;" edge="1" parent="1">
          <mxGeometry width="50" height="50" relative="1" as="geometry">
            <mxPoint x="290" y="460" as="sourcePoint" />
            <mxPoint x="560" y="480" as="targetPoint" />
          </mxGeometry>
        </mxCell>
        <mxCell id="zNwnEr8ozs20U4Y1TrXp-32" value="10" style="endArrow=cross;html=1;rounded=0;endFill=0;shadow=0;sketch=1;curveFitting=1;jiggle=2;" edge="1" parent="1">
          <mxGeometry width="50" height="50" relative="1" as="geometry">
            <mxPoint x="290" y="480" as="sourcePoint" />
            <mxPoint x="560" y="500" as="targetPoint" />
          </mxGeometry>
        </mxCell>
        <mxCell id="zNwnEr8ozs20U4Y1TrXp-33" value="11" style="endArrow=cross;html=1;rounded=0;endFill=0;shadow=0;sketch=1;curveFitting=1;jiggle=2;" edge="1" parent="1">
          <mxGeometry width="50" height="50" relative="1" as="geometry">
            <mxPoint x="290" y="500" as="sourcePoint" />
            <mxPoint x="560" y="520" as="targetPoint" />
          </mxGeometry>
        </mxCell>
        <mxCell id="zNwnEr8ozs20U4Y1TrXp-34" value="12" style="endArrow=cross;html=1;rounded=0;endFill=0;shadow=0;sketch=1;curveFitting=1;jiggle=2;" edge="1" parent="1">
          <mxGeometry width="50" height="50" relative="1" as="geometry">
            <mxPoint x="290" y="520" as="sourcePoint" />
            <mxPoint x="560" y="540" as="targetPoint" />
          </mxGeometry>
        </mxCell>
        <mxCell id="zNwnEr8ozs20U4Y1TrXp-35" value="13" style="endArrow=cross;html=1;rounded=0;endFill=0;shadow=0;sketch=1;curveFitting=1;jiggle=2;" edge="1" parent="1">
          <mxGeometry width="50" height="50" relative="1" as="geometry">
            <mxPoint x="290" y="540" as="sourcePoint" />
            <mxPoint x="560" y="560" as="targetPoint" />
          </mxGeometry>
        </mxCell>
        <mxCell id="zNwnEr8ozs20U4Y1TrXp-36" value="14" style="endArrow=cross;html=1;rounded=0;endFill=0;shadow=0;sketch=1;curveFitting=1;jiggle=2;" edge="1" parent="1">
          <mxGeometry width="50" height="50" relative="1" as="geometry">
            <mxPoint x="290" y="560" as="sourcePoint" />
            <mxPoint x="560" y="580" as="targetPoint" />
          </mxGeometry>
        </mxCell>
        <mxCell id="zNwnEr8ozs20U4Y1TrXp-38" value="Congestion Avoidance" style="rounded=1;whiteSpace=wrap;html=1;shadow=0;sketch=1;curveFitting=1;jiggle=2;" vertex="1" parent="1">
          <mxGeometry x="165" y="520" width="90" height="40" as="geometry" />
        </mxCell>
        <mxCell id="zNwnEr8ozs20U4Y1TrXp-40" value="Slow Start" style="rounded=1;whiteSpace=wrap;html=1;shadow=0;sketch=1;curveFitting=1;jiggle=2;" vertex="1" parent="1">
          <mxGeometry x="620" y="128" width="90" height="40" as="geometry" />
        </mxCell>
        <mxCell id="zNwnEr8ozs20U4Y1TrXp-41" value="" style="endArrow=none;dashed=1;html=1;rounded=0;shadow=0;sketch=1;curveFitting=1;jiggle=2;" edge="1" parent="1">
          <mxGeometry width="50" height="50" relative="1" as="geometry">
            <mxPoint x="245" y="590" as="sourcePoint" />
            <mxPoint x="605" y="590" as="targetPoint" />
          </mxGeometry>
        </mxCell>
        <mxCell id="zNwnEr8ozs20U4Y1TrXp-48" style="edgeStyle=orthogonalEdgeStyle;rounded=0;orthogonalLoop=1;jettySize=auto;html=1;exitX=0.5;exitY=1;exitDx=0;exitDy=0;entryX=0.5;entryY=0;entryDx=0;entryDy=0;sketch=1;curveFitting=1;jiggle=2;" edge="1" parent="1" source="zNwnEr8ozs20U4Y1TrXp-42" target="zNwnEr8ozs20U4Y1TrXp-47">
          <mxGeometry relative="1" as="geometry" />
        </mxCell>
        <mxCell id="zNwnEr8ozs20U4Y1TrXp-42" value="RTO: Pérdida por Timeout" style="rounded=1;whiteSpace=wrap;html=1;shadow=0;sketch=1;curveFitting=1;jiggle=2;" vertex="1" parent="1">
          <mxGeometry x="620" y="590" width="90" height="40" as="geometry" />
        </mxCell>
        <mxCell id="zNwnEr8ozs20U4Y1TrXp-43" value="cwnd = LW = 1&lt;br&gt;&lt;br&gt;sstresh&amp;nbsp;= cwnd/2 = 4" style="text;html=1;align=center;verticalAlign=middle;resizable=0;points=[];autosize=1;strokeColor=none;fillColor=none;shadow=0;sketch=1;curveFitting=1;jiggle=2;" vertex="1" parent="1">
          <mxGeometry x="145" y="590" width="130" height="60" as="geometry" />
        </mxCell>
        <mxCell id="zNwnEr8ozs20U4Y1TrXp-45" value="7" style="endArrow=classic;html=1;rounded=0;shadow=0;sketch=1;curveFitting=1;jiggle=2;" edge="1" parent="1">
          <mxGeometry width="50" height="50" relative="1" as="geometry">
            <mxPoint x="290" y="595" as="sourcePoint" />
            <mxPoint x="560" y="615" as="targetPoint" />
          </mxGeometry>
        </mxCell>
        <mxCell id="zNwnEr8ozs20U4Y1TrXp-46" value="ACK 7" style="endArrow=classic;html=1;rounded=0;shadow=0;sketch=1;curveFitting=1;jiggle=2;" edge="1" parent="1">
          <mxGeometry x="-0.0015" width="50" height="50" relative="1" as="geometry">
            <mxPoint x="560" y="625" as="sourcePoint" />
            <mxPoint x="290" y="645" as="targetPoint" />
            <mxPoint as="offset" />
          </mxGeometry>
        </mxCell>
        <mxCell id="zNwnEr8ozs20U4Y1TrXp-47" value="Slow Start" style="rounded=1;whiteSpace=wrap;html=1;shadow=0;sketch=1;curveFitting=1;jiggle=2;" vertex="1" parent="1">
          <mxGeometry x="620" y="660" width="90" height="40" as="geometry" />
        </mxCell>
        <mxCell id="zNwnEr8ozs20U4Y1TrXp-49" value="cwnd = 2&lt;br&gt;&lt;br&gt;sstresh&amp;nbsp;= 4" style="text;html=1;align=center;verticalAlign=middle;resizable=0;points=[];autosize=1;strokeColor=none;fillColor=none;shadow=0;sketch=1;curveFitting=1;jiggle=2;" vertex="1" parent="1">
          <mxGeometry x="170" y="660" width="80" height="60" as="geometry" />
        </mxCell>
        <mxCell id="zNwnEr8ozs20U4Y1TrXp-54" value="8" style="endArrow=classic;html=1;rounded=0;shadow=0;sketch=1;curveFitting=1;jiggle=2;" edge="1" parent="1">
          <mxGeometry x="-0.0015" width="50" height="50" relative="1" as="geometry">
            <mxPoint x="290" y="660" as="sourcePoint" />
            <mxPoint x="560" y="680" as="targetPoint" />
            <mxPoint as="offset" />
          </mxGeometry>
        </mxCell>
        <mxCell id="zNwnEr8ozs20U4Y1TrXp-55" value="9" style="endArrow=classic;html=1;rounded=0;shadow=0;sketch=1;curveFitting=1;jiggle=2;" edge="1" parent="1">
          <mxGeometry width="50" height="50" relative="1" as="geometry">
            <mxPoint x="290" y="680" as="sourcePoint" />
            <mxPoint x="560" y="700" as="targetPoint" />
          </mxGeometry>
        </mxCell>
        <mxCell id="zNwnEr8ozs20U4Y1TrXp-56" value="ACK 8" style="endArrow=classic;html=1;rounded=0;shadow=0;sketch=1;curveFitting=1;jiggle=2;" edge="1" parent="1">
          <mxGeometry x="-0.0015" width="50" height="50" relative="1" as="geometry">
            <mxPoint x="560" y="710" as="sourcePoint" />
            <mxPoint x="290" y="730" as="targetPoint" />
            <mxPoint as="offset" />
          </mxGeometry>
        </mxCell>
        <mxCell id="zNwnEr8ozs20U4Y1TrXp-57" value="ACK 9" style="endArrow=classic;html=1;rounded=0;shadow=0;sketch=1;curveFitting=1;jiggle=2;" edge="1" parent="1">
          <mxGeometry x="-0.0015" width="50" height="50" relative="1" as="geometry">
            <mxPoint x="560" y="730" as="sourcePoint" />
            <mxPoint x="290" y="750" as="targetPoint" />
            <mxPoint as="offset" />
          </mxGeometry>
        </mxCell>
        <mxCell id="zNwnEr8ozs20U4Y1TrXp-71" value="cwnd == sstresh" style="edgeStyle=orthogonalEdgeStyle;rounded=0;orthogonalLoop=1;jettySize=auto;html=1;sketch=1;curveFitting=1;jiggle=2;" edge="1" parent="1" source="zNwnEr8ozs20U4Y1TrXp-58" target="zNwnEr8ozs20U4Y1TrXp-68">
          <mxGeometry x="0.9339" relative="1" as="geometry">
            <Array as="points">
              <mxPoint x="210" y="950" />
              <mxPoint x="665" y="950" />
            </Array>
            <mxPoint as="offset" />
          </mxGeometry>
        </mxCell>
        <mxCell id="zNwnEr8ozs20U4Y1TrXp-58" value="cwnd = 4&lt;br&gt;&lt;br&gt;sstresh&amp;nbsp;= 4" style="text;html=1;align=center;verticalAlign=middle;resizable=0;points=[];autosize=1;strokeColor=none;fillColor=none;shadow=0;sketch=1;curveFitting=1;jiggle=2;" vertex="1" parent="1">
          <mxGeometry x="170" y="760" width="80" height="60" as="geometry" />
        </mxCell>
        <mxCell id="zNwnEr8ozs20U4Y1TrXp-59" value="10" style="endArrow=classic;html=1;rounded=0;shadow=0;sketch=1;curveFitting=1;jiggle=2;" edge="1" parent="1">
          <mxGeometry x="-0.0015" width="50" height="50" relative="1" as="geometry">
            <mxPoint x="290" y="770" as="sourcePoint" />
            <mxPoint x="560" y="790" as="targetPoint" />
            <mxPoint as="offset" />
          </mxGeometry>
        </mxCell>
        <mxCell id="zNwnEr8ozs20U4Y1TrXp-60" value="11" style="endArrow=classic;html=1;rounded=0;shadow=0;sketch=1;curveFitting=1;jiggle=2;" edge="1" parent="1">
          <mxGeometry width="50" height="50" relative="1" as="geometry">
            <mxPoint x="290" y="790" as="sourcePoint" />
            <mxPoint x="560" y="810" as="targetPoint" />
          </mxGeometry>
        </mxCell>
        <mxCell id="zNwnEr8ozs20U4Y1TrXp-61" value="12" style="endArrow=classic;html=1;rounded=0;shadow=0;sketch=1;curveFitting=1;jiggle=2;" edge="1" parent="1">
          <mxGeometry x="-0.0015" width="50" height="50" relative="1" as="geometry">
            <mxPoint x="290" y="810" as="sourcePoint" />
            <mxPoint x="560" y="830" as="targetPoint" />
            <mxPoint as="offset" />
          </mxGeometry>
        </mxCell>
        <mxCell id="zNwnEr8ozs20U4Y1TrXp-62" value="13" style="endArrow=classic;html=1;rounded=0;shadow=0;sketch=1;curveFitting=1;jiggle=2;" edge="1" parent="1">
          <mxGeometry width="50" height="50" relative="1" as="geometry">
            <mxPoint x="290" y="830" as="sourcePoint" />
            <mxPoint x="560" y="850" as="targetPoint" />
          </mxGeometry>
        </mxCell>
        <mxCell id="zNwnEr8ozs20U4Y1TrXp-63" value="ACK 10" style="endArrow=classic;html=1;rounded=0;shadow=0;sketch=1;curveFitting=1;jiggle=2;" edge="1" parent="1">
          <mxGeometry x="-0.0015" width="50" height="50" relative="1" as="geometry">
            <mxPoint x="560" y="860" as="sourcePoint" />
            <mxPoint x="290" y="880" as="targetPoint" />
            <mxPoint as="offset" />
          </mxGeometry>
        </mxCell>
        <mxCell id="zNwnEr8ozs20U4Y1TrXp-64" value="ACK 11" style="endArrow=classic;html=1;rounded=0;shadow=0;sketch=1;curveFitting=1;jiggle=2;" edge="1" parent="1">
          <mxGeometry x="-0.0015" width="50" height="50" relative="1" as="geometry">
            <mxPoint x="560" y="880" as="sourcePoint" />
            <mxPoint x="290" y="900" as="targetPoint" />
            <mxPoint as="offset" />
          </mxGeometry>
        </mxCell>
        <mxCell id="zNwnEr8ozs20U4Y1TrXp-65" value="ACK 12" style="endArrow=classic;html=1;rounded=0;shadow=0;sketch=1;curveFitting=1;jiggle=2;" edge="1" parent="1">
          <mxGeometry x="-0.0015" width="50" height="50" relative="1" as="geometry">
            <mxPoint x="560" y="900" as="sourcePoint" />
            <mxPoint x="290" y="920" as="targetPoint" />
            <mxPoint as="offset" />
          </mxGeometry>
        </mxCell>
        <mxCell id="zNwnEr8ozs20U4Y1TrXp-66" value="ACK 13" style="endArrow=classic;html=1;rounded=0;shadow=0;sketch=1;curveFitting=1;jiggle=2;" edge="1" parent="1">
          <mxGeometry x="-0.0015" width="50" height="50" relative="1" as="geometry">
            <mxPoint x="560" y="920" as="sourcePoint" />
            <mxPoint x="290" y="940" as="targetPoint" />
            <mxPoint as="offset" />
          </mxGeometry>
        </mxCell>
        <mxCell id="zNwnEr8ozs20U4Y1TrXp-67" value="" style="endArrow=none;dashed=1;html=1;rounded=0;shadow=0;sketch=1;curveFitting=1;jiggle=2;" edge="1" parent="1">
          <mxGeometry width="50" height="50" relative="1" as="geometry">
            <mxPoint x="245" y="960" as="sourcePoint" />
            <mxPoint x="605" y="960" as="targetPoint" />
          </mxGeometry>
        </mxCell>
        <mxCell id="zNwnEr8ozs20U4Y1TrXp-68" value="Congestion Avoidance" style="rounded=1;whiteSpace=wrap;html=1;shadow=0;sketch=1;curveFitting=1;jiggle=2;" vertex="1" parent="1">
          <mxGeometry x="620" y="970" width="90" height="40" as="geometry" />
        </mxCell>
        <mxCell id="zNwnEr8ozs20U4Y1TrXp-73" value="cwnd = 5&lt;br&gt;&lt;br&gt;sstresh&amp;nbsp;= 4" style="text;html=1;align=center;verticalAlign=middle;resizable=0;points=[];autosize=1;strokeColor=none;fillColor=none;shadow=0;sketch=1;curveFitting=1;jiggle=2;" vertex="1" parent="1">
          <mxGeometry x="170" y="970" width="80" height="60" as="geometry" />
        </mxCell>
        <mxCell id="zNwnEr8ozs20U4Y1TrXp-74" value="14" style="endArrow=classic;html=1;rounded=0;shadow=0;sketch=1;curveFitting=1;jiggle=2;" edge="1" parent="1">
          <mxGeometry x="-0.0015" width="50" height="50" relative="1" as="geometry">
            <mxPoint x="290" y="970" as="sourcePoint" />
            <mxPoint x="560" y="990" as="targetPoint" />
            <mxPoint as="offset" />
          </mxGeometry>
        </mxCell>
        <mxCell id="zNwnEr8ozs20U4Y1TrXp-75" value="15" style="endArrow=classic;html=1;rounded=0;shadow=0;sketch=1;curveFitting=1;jiggle=2;" edge="1" parent="1">
          <mxGeometry width="50" height="50" relative="1" as="geometry">
            <mxPoint x="290" y="990" as="sourcePoint" />
            <mxPoint x="560" y="1010" as="targetPoint" />
          </mxGeometry>
        </mxCell>
        <mxCell id="zNwnEr8ozs20U4Y1TrXp-76" value="16" style="endArrow=cross;html=1;rounded=0;shadow=0;sketch=1;curveFitting=1;jiggle=2;endFill=0;" edge="1" parent="1">
          <mxGeometry x="-0.0015" width="50" height="50" relative="1" as="geometry">
            <mxPoint x="290" y="1010" as="sourcePoint" />
            <mxPoint x="560" y="1030" as="targetPoint" />
            <mxPoint as="offset" />
          </mxGeometry>
        </mxCell>
        <mxCell id="zNwnEr8ozs20U4Y1TrXp-77" value="17" style="endArrow=classic;html=1;rounded=0;shadow=0;sketch=1;curveFitting=1;jiggle=2;" edge="1" parent="1">
          <mxGeometry width="50" height="50" relative="1" as="geometry">
            <mxPoint x="290" y="1030" as="sourcePoint" />
            <mxPoint x="560" y="1050" as="targetPoint" />
          </mxGeometry>
        </mxCell>
        <mxCell id="zNwnEr8ozs20U4Y1TrXp-78" value="18" style="endArrow=classic;html=1;rounded=0;shadow=0;sketch=1;curveFitting=1;jiggle=2;" edge="1" parent="1">
          <mxGeometry width="50" height="50" relative="1" as="geometry">
            <mxPoint x="290" y="1050" as="sourcePoint" />
            <mxPoint x="560" y="1070" as="targetPoint" />
          </mxGeometry>
        </mxCell>
        <mxCell id="zNwnEr8ozs20U4Y1TrXp-79" value="ACK 14" style="endArrow=classic;html=1;rounded=0;shadow=0;sketch=1;curveFitting=1;jiggle=2;" edge="1" parent="1">
          <mxGeometry x="-0.0015" width="50" height="50" relative="1" as="geometry">
            <mxPoint x="560" y="1080" as="sourcePoint" />
            <mxPoint x="290" y="1100" as="targetPoint" />
            <mxPoint as="offset" />
          </mxGeometry>
        </mxCell>
        <mxCell id="zNwnEr8ozs20U4Y1TrXp-80" value="ACK 15" style="endArrow=classic;html=1;rounded=0;shadow=0;sketch=1;curveFitting=1;jiggle=2;" edge="1" parent="1">
          <mxGeometry x="-0.0015" width="50" height="50" relative="1" as="geometry">
            <mxPoint x="560" y="1100" as="sourcePoint" />
            <mxPoint x="290" y="1120" as="targetPoint" />
            <mxPoint as="offset" />
          </mxGeometry>
        </mxCell>
        <mxCell id="zNwnEr8ozs20U4Y1TrXp-81" value="ACK 15" style="endArrow=classic;html=1;rounded=0;shadow=0;sketch=1;curveFitting=1;jiggle=2;" edge="1" parent="1">
          <mxGeometry x="-0.0015" width="50" height="50" relative="1" as="geometry">
            <mxPoint x="560" y="1120" as="sourcePoint" />
            <mxPoint x="290" y="1140" as="targetPoint" />
            <mxPoint as="offset" />
          </mxGeometry>
        </mxCell>
        <mxCell id="zNwnEr8ozs20U4Y1TrXp-82" value="ACK 15" style="endArrow=classic;html=1;rounded=0;shadow=0;sketch=1;curveFitting=1;jiggle=2;" edge="1" parent="1">
          <mxGeometry x="-0.0015" width="50" height="50" relative="1" as="geometry">
            <mxPoint x="560" y="1140" as="sourcePoint" />
            <mxPoint x="290" y="1160" as="targetPoint" />
            <mxPoint as="offset" />
          </mxGeometry>
        </mxCell>
        <mxCell id="zNwnEr8ozs20U4Y1TrXp-83" value="19" style="endArrow=classic;html=1;rounded=0;shadow=0;sketch=1;curveFitting=1;jiggle=2;" edge="1" parent="1">
          <mxGeometry width="50" height="50" relative="1" as="geometry">
            <mxPoint x="290" y="1170" as="sourcePoint" />
            <mxPoint x="560" y="1190" as="targetPoint" />
          </mxGeometry>
        </mxCell>
        <mxCell id="zNwnEr8ozs20U4Y1TrXp-84" value="20" style="endArrow=classic;html=1;rounded=0;shadow=0;sketch=1;curveFitting=1;jiggle=2;" edge="1" parent="1">
          <mxGeometry width="50" height="50" relative="1" as="geometry">
            <mxPoint x="290" y="1190" as="sourcePoint" />
            <mxPoint x="560" y="1210" as="targetPoint" />
          </mxGeometry>
        </mxCell>
        <mxCell id="zNwnEr8ozs20U4Y1TrXp-86" value="Por corrimiento de ventana, &lt;br&gt;sólo puedo mandar 2 paquetes. &lt;br&gt;El último ACKeado fue el &lt;font face=&quot;Comic Sans MS&quot;&gt;&lt;b&gt;15&lt;/b&gt;&lt;/font&gt;." style="text;html=1;align=center;verticalAlign=middle;resizable=0;points=[];autosize=1;strokeColor=none;fillColor=none;" vertex="1" parent="1">
          <mxGeometry x="590" y="1170" width="190" height="60" as="geometry" />
        </mxCell>
        <mxCell id="zNwnEr8ozs20U4Y1TrXp-87" value="ACK 15" style="endArrow=classic;html=1;rounded=0;shadow=0;sketch=1;curveFitting=1;jiggle=2;fillColor=#f8cecc;strokeColor=#b85450;" edge="1" parent="1">
          <mxGeometry x="-0.0015" width="50" height="50" relative="1" as="geometry">
            <mxPoint x="560" y="1220" as="sourcePoint" />
            <mxPoint x="290" y="1240" as="targetPoint" />
            <mxPoint as="offset" />
          </mxGeometry>
        </mxCell>
        <mxCell id="zNwnEr8ozs20U4Y1TrXp-88" value="ACK 15" style="endArrow=classic;html=1;rounded=0;shadow=0;sketch=1;curveFitting=1;jiggle=2;" edge="1" parent="1">
          <mxGeometry x="-0.0015" width="50" height="50" relative="1" as="geometry">
            <mxPoint x="560" y="1240" as="sourcePoint" />
            <mxPoint x="290" y="1260" as="targetPoint" />
            <mxPoint as="offset" />
          </mxGeometry>
        </mxCell>
        <mxCell id="zNwnEr8ozs20U4Y1TrXp-92" value="3er ACK duplicado.&lt;br&gt;Paso a Fast Retransmit" style="text;html=1;align=center;verticalAlign=middle;resizable=0;points=[];autosize=1;strokeColor=none;fillColor=none;" vertex="1" parent="1">
          <mxGeometry x="135" y="1220" width="150" height="40" as="geometry" />
        </mxCell>
        <mxCell id="zNwnEr8ozs20U4Y1TrXp-93" value="" style="endArrow=none;dashed=1;html=1;rounded=0;shadow=0;sketch=1;curveFitting=1;jiggle=2;" edge="1" parent="1">
          <mxGeometry width="50" height="50" relative="1" as="geometry">
            <mxPoint x="245" y="1270" as="sourcePoint" />
            <mxPoint x="605" y="1270" as="targetPoint" />
          </mxGeometry>
        </mxCell>
        <mxCell id="zNwnEr8ozs20U4Y1TrXp-94" value="cwnd = 1&lt;br&gt;&lt;br&gt;sstresh&amp;nbsp;= 4" style="text;html=1;align=center;verticalAlign=middle;resizable=0;points=[];autosize=1;strokeColor=none;fillColor=none;shadow=0;sketch=1;curveFitting=1;jiggle=2;" vertex="1" parent="1">
          <mxGeometry x="170" y="1280" width="80" height="60" as="geometry" />
        </mxCell>
        <mxCell id="zNwnEr8ozs20U4Y1TrXp-95" value="16" style="endArrow=classic;html=1;rounded=0;shadow=0;sketch=1;curveFitting=1;jiggle=2;" edge="1" parent="1">
          <mxGeometry width="50" height="50" relative="1" as="geometry">
            <mxPoint x="290" y="1280" as="sourcePoint" />
            <mxPoint x="560" y="1300" as="targetPoint" />
          </mxGeometry>
        </mxCell>
        <mxCell id="zNwnEr8ozs20U4Y1TrXp-96" value="ACK 20" style="endArrow=classic;html=1;rounded=0;shadow=0;sketch=1;curveFitting=1;jiggle=2;" edge="1" parent="1">
          <mxGeometry x="-0.0015" width="50" height="50" relative="1" as="geometry">
            <mxPoint x="560" y="1310" as="sourcePoint" />
            <mxPoint x="290" y="1330" as="targetPoint" />
            <mxPoint as="offset" />
          </mxGeometry>
        </mxCell>
        <mxCell id="zNwnEr8ozs20U4Y1TrXp-100" value="RENO" style="edgeStyle=orthogonalEdgeStyle;rounded=0;orthogonalLoop=1;jettySize=auto;html=1;exitX=0.5;exitY=1;exitDx=0;exitDy=0;sketch=1;curveFitting=1;jiggle=2;" edge="1" parent="1" source="zNwnEr8ozs20U4Y1TrXp-97" target="zNwnEr8ozs20U4Y1TrXp-99">
          <mxGeometry y="25" relative="1" as="geometry">
            <mxPoint as="offset" />
          </mxGeometry>
        </mxCell>
        <mxCell id="zNwnEr8ozs20U4Y1TrXp-97" value="Fast Retransmit" style="rounded=1;whiteSpace=wrap;html=1;shadow=0;sketch=1;curveFitting=1;jiggle=2;" vertex="1" parent="1">
          <mxGeometry x="620" y="1270" width="90" height="40" as="geometry" />
        </mxCell>
        <mxCell id="zNwnEr8ozs20U4Y1TrXp-98" value="" style="endArrow=none;dashed=1;html=1;rounded=0;shadow=0;sketch=1;curveFitting=1;jiggle=2;" edge="1" parent="1">
          <mxGeometry width="50" height="50" relative="1" as="geometry">
            <mxPoint x="245" y="1350" as="sourcePoint" />
            <mxPoint x="605" y="1350" as="targetPoint" />
          </mxGeometry>
        </mxCell>
        <mxCell id="zNwnEr8ozs20U4Y1TrXp-104" style="edgeStyle=orthogonalEdgeStyle;rounded=0;orthogonalLoop=1;jettySize=auto;html=1;exitX=0.5;exitY=1;exitDx=0;exitDy=0;entryX=0.5;entryY=0;entryDx=0;entryDy=0;sketch=1;curveFitting=1;jiggle=2;" edge="1" parent="1" source="zNwnEr8ozs20U4Y1TrXp-99" target="zNwnEr8ozs20U4Y1TrXp-103">
          <mxGeometry relative="1" as="geometry" />
        </mxCell>
        <mxCell id="zNwnEr8ozs20U4Y1TrXp-99" value="Fast Recovery" style="rounded=1;whiteSpace=wrap;html=1;shadow=0;sketch=1;curveFitting=1;jiggle=2;" vertex="1" parent="1">
          <mxGeometry x="620" y="1350" width="90" height="40" as="geometry" />
        </mxCell>
        <mxCell id="zNwnEr8ozs20U4Y1TrXp-103" value="Congestion Avoidance" style="rounded=1;whiteSpace=wrap;html=1;shadow=0;sketch=1;curveFitting=1;jiggle=2;" vertex="1" parent="1">
          <mxGeometry x="620" y="1420" width="90" height="40" as="geometry" />
        </mxCell>
        <mxCell id="zNwnEr8ozs20U4Y1TrXp-105" value="cwnd = cwnd/2 = 5/2 = 2&lt;br&gt;&lt;br&gt;sstresh&amp;nbsp;= cwnd = 2" style="text;html=1;align=center;verticalAlign=middle;resizable=0;points=[];autosize=1;strokeColor=none;fillColor=none;shadow=0;sketch=1;curveFitting=1;jiggle=2;" vertex="1" parent="1">
          <mxGeometry x="135" y="1360" width="150" height="60" as="geometry" />
        </mxCell>
        <mxCell id="zNwnEr8ozs20U4Y1TrXp-106" value="21" style="endArrow=classic;html=1;rounded=0;shadow=0;sketch=1;curveFitting=1;jiggle=2;" edge="1" parent="1">
          <mxGeometry width="50" height="50" relative="1" as="geometry">
            <mxPoint x="290" y="1360" as="sourcePoint" />
            <mxPoint x="560" y="1380" as="targetPoint" />
          </mxGeometry>
        </mxCell>
        <mxCell id="zNwnEr8ozs20U4Y1TrXp-107" value="ACK 21" style="endArrow=classic;html=1;rounded=0;shadow=0;sketch=1;curveFitting=1;jiggle=2;" edge="1" parent="1">
          <mxGeometry x="-0.0015" width="50" height="50" relative="1" as="geometry">
            <mxPoint x="560" y="1390" as="sourcePoint" />
            <mxPoint x="290" y="1410" as="targetPoint" />
            <mxPoint as="offset" />
          </mxGeometry>
        </mxCell>
        <mxCell id="zNwnEr8ozs20U4Y1TrXp-108" value="FIN" style="endArrow=classic;html=1;rounded=0;shadow=0;sketch=1;curveFitting=1;jiggle=2;" edge="1" parent="1">
          <mxGeometry x="-0.001" width="50" height="50" relative="1" as="geometry">
            <mxPoint x="290" y="1420" as="sourcePoint" />
            <mxPoint x="560" y="1440" as="targetPoint" />
            <mxPoint as="offset" />
          </mxGeometry>
        </mxCell>
        <mxCell id="zNwnEr8ozs20U4Y1TrXp-109" value="ACK FIN" style="endArrow=classic;html=1;rounded=0;shadow=0;sketch=1;curveFitting=1;jiggle=2;" edge="1" parent="1">
          <mxGeometry x="-0.001" width="50" height="50" relative="1" as="geometry">
            <mxPoint x="560" y="1450" as="sourcePoint" />
            <mxPoint x="290" y="1470" as="targetPoint" />
            <mxPoint as="offset" />
          </mxGeometry>
        </mxCell>
        <mxCell id="zNwnEr8ozs20U4Y1TrXp-110" value="ACK" style="endArrow=classic;html=1;rounded=0;shadow=0;sketch=1;curveFitting=1;jiggle=2;" edge="1" parent="1">
          <mxGeometry width="50" height="50" relative="1" as="geometry">
            <mxPoint x="290" y="1480" as="sourcePoint" />
            <mxPoint x="560" y="1500" as="targetPoint" />
          </mxGeometry>
        </mxCell>
        <mxCell id="zNwnEr8ozs20U4Y1TrXp-111" value="" style="strokeWidth=2;html=1;shape=mxgraph.flowchart.annotation_1;align=left;pointerEvents=1;rotation=-180;sketch=1;curveFitting=1;jiggle=2;" vertex="1" parent="1">
          <mxGeometry x="570" y="140" width="20" height="90" as="geometry" />
        </mxCell>
        <mxCell id="zNwnEr8ozs20U4Y1TrXp-115" value="" style="strokeWidth=2;html=1;shape=mxgraph.flowchart.annotation_1;align=left;pointerEvents=1;rotation=-180;sketch=1;curveFitting=1;jiggle=2;" vertex="1" parent="1">
          <mxGeometry x="570" y="240" width="20" height="170" as="geometry" />
        </mxCell>
        <mxCell id="zNwnEr8ozs20U4Y1TrXp-116" value="" style="strokeWidth=2;html=1;shape=mxgraph.flowchart.annotation_1;align=left;pointerEvents=1;rotation=-180;sketch=1;curveFitting=1;jiggle=2;" vertex="1" parent="1">
          <mxGeometry x="570" y="600" width="20" height="50" as="geometry" />
        </mxCell>
        <mxCell id="zNwnEr8ozs20U4Y1TrXp-117" value="" style="strokeWidth=2;html=1;shape=mxgraph.flowchart.annotation_1;align=left;pointerEvents=1;rotation=-180;sketch=1;curveFitting=1;jiggle=2;" vertex="1" parent="1">
          <mxGeometry x="570" y="660" width="20" height="90" as="geometry" />
        </mxCell>
        <mxCell id="zNwnEr8ozs20U4Y1TrXp-118" value="" style="strokeWidth=2;html=1;shape=mxgraph.flowchart.annotation_1;align=left;pointerEvents=1;rotation=-180;sketch=1;curveFitting=1;jiggle=2;" vertex="1" parent="1">
          <mxGeometry x="570" y="770" width="20" height="170" as="geometry" />
        </mxCell>
        <mxCell id="zNwnEr8ozs20U4Y1TrXp-119" value="" style="strokeWidth=2;html=1;shape=mxgraph.flowchart.annotation_1;align=left;pointerEvents=1;rotation=-180;sketch=1;curveFitting=1;jiggle=2;" vertex="1" parent="1">
          <mxGeometry x="570" y="970" width="20" height="190" as="geometry" />
        </mxCell>
        <mxCell id="zNwnEr8ozs20U4Y1TrXp-120" value="" style="strokeWidth=2;html=1;shape=mxgraph.flowchart.annotation_1;align=left;pointerEvents=1;rotation=-180;sketch=1;curveFitting=1;jiggle=2;" vertex="1" parent="1">
          <mxGeometry x="570" y="1170" width="20" height="90" as="geometry" />
        </mxCell>
        <mxCell id="zNwnEr8ozs20U4Y1TrXp-121" value="" style="strokeWidth=2;html=1;shape=mxgraph.flowchart.annotation_1;align=left;pointerEvents=1;rotation=-180;sketch=1;curveFitting=1;jiggle=2;" vertex="1" parent="1">
          <mxGeometry x="570" y="1280" width="20" height="60" as="geometry" />
        </mxCell>
      </root>
    </mxGraphModel>
  </diagram>
</mxfile>
